{
  "accessors": [
    {
      "bufferView": 2,
      "componentType": 5126,
      "count": 65532,
      "max": [
        5110.0,
        4634.31640625,
        5110.0
      ],
      "min": [
        -5120.0,
        3084.70654296875,
        -5120.0
      ],
      "type": "VEC3"
    },
    {
      "bufferView": 2,
      "byteOffset": 786384,
      "componentType": 5126,
      "count": 65532,
      "max": [
        0.9054402709007263,
        -0.2116200029850006,
        0.9045466780662537
      ],
      "min": [
        -0.8362268209457397,
        -0.9999998807907104,
        -0.9647619724273682
      ],
      "type": "VEC3"
    },
    {
      "bufferView": 1,
      "componentType": 5126,
      "count": 65532,
      "max": [
        1.0,
        1.0
      ],
      "min": [
        0.0,
        0.0
      ],
      "type": "VEC2"
    },
    {
      "bufferView": 0,
      "componentType": 5125,
      "count": 373734,
      "type": "SCALAR"
    },
    {
      "bufferView": 2,
      "byteOffset": 1572768,
      "componentType": 5126,
      "count": 65532,
      "max": [
        5031.25,
        4527.39404296875,
        3200.0
      ],
      "min": [
        -5120.0,
        2277.202880859375,
        -5100.0
      ],
      "type": "VEC3"
    },
    {
      "bufferView": 2,
      "byteOffset": 2359152,
      "componentType": 5126,
      "count": 65532,
      "max": [
        0.9754542112350464,
        -0.1732724905014038,
        0.9711387157440186
      ],
      "min": [
        -0.9736945629119873,
        -0.9999613165855408,
        -0.9802334308624268
      ],
      "type": "VEC3"
    },
    {
      "bufferView": 1,
      "byteOffset": 524256,
      "componentType": 5126,
      "count": 65532,
      "max": [
        0.9923020005226135,
        0.813293993473053
      ],
      "min": [
        0.0,
        0.0019549999851733446
      ],
      "type": "VEC2"
    },
    {
      "bufferView": 0,
      "byteOffset": 1494936,
      "componentType": 5125,
      "count": 345888,
      "type": "SCALAR"
    },
    {
      "bufferView": 2,
      "byteOffset": 3145536,
      "componentType": 5126,
      "count": 65532,
      "max": [
        5070.625,
        4631.34375,
        2490.0
      ],
      "min": [
        -5120.0,
        2095.73779296875,
        -5120.0
      ],
      "type": "VEC3"
    },
    {
      "bufferView": 2,
      "byteOffset": 3931920,
      "componentType": 5126,
      "count": 65532,
      "max": [
        0.9790147542953491,
        -0.1512526124715805,
        0.979629635810852
      ],
      "min": [
        -0.9770851731300354,
        -0.9999902844429016,
        -0.9752400517463684
      ],
      "type": "VEC3"
    },
    {
      "bufferView": 1,
      "byteOffset": 1048512,
      "componentType": 5126,
      "count": 65532,
      "max": [
        0.9961509704589844,
        0.7438910007476807
      ],
      "min": [
        0.0,
        0.0
      ],
      "type": "VEC2"
    },
    {
      "bufferView": 0,
      "byteOffset": 2878488,
      "componentType": 5125,
      "count": 342489,
      "type": "SCALAR"
    },
    {
      "bufferView": 2,
      "byteOffset": 4718304,
      "componentType": 5126,
      "count": 65532,
      "max": [
        5110.0,
        4719.2880859375,
        2520.0
      ],
      "min": [
        -5120.0,
        3001.056396484375,
        -5120.0
      ],
      "type": "VEC3"
    },
    {
      "bufferView": 2,
      "byteOffset": 5504688,
      "componentType": 5126,
      "count": 65532,
      "max": [
        0.8963302373886108,
        -0.23304158449172974,
        0.9539058804512024
      ],
      "min": [
        -0.9479978680610657,
        -0.9999922513961792,
        -0.9566770792007446
      ],
      "type": "VEC3"
    },
    {
      "bufferView": 1,
      "byteOffset": 1572768,
      "componentType": 5126,
      "count": 65532,
      "max": [
        1.0,
        0.7468230128288269
      ],
      "min": [
        0.0,
        0.0
      ],
      "type": "VEC2"
    },
    {
      "bufferView": 0,
      "byteOffset": 4248444,
      "componentType": 5125,
      "count": 348354,
      "type": "SCALAR"
    },
    {
      "bufferView": 2,
      "byteOffset": 6291072,
      "componentType": 5126,
      "count": 65532,
      "max": [
        4854.0625,
        4318.88232421875,
        2500.0
      ],
      "min": [
        -2970.0,
        2099.36279296875,
        -640.0
      ],
      "type": "VEC3"
    },
    {
      "bufferView": 2,
      "byteOffset": 7077456,
      "componentType": 5126,
      "count": 65532,
      "max": [
        0.9839538335800171,
        -0.11666718870401382,
        0.986605703830719
      ],
      "min": [
        -0.9877583384513855,
        -0.9999825358390808,
        -0.9847594499588013
      ],
      "type": "VEC3"
    },
    {
      "bufferView": 1,
      "byteOffset": 2097024,
      "componentType": 5126,
      "count": 65532,
      "max": [
        0.9749820232391357,
        0.7448679804801941
      ],
      "min": [
        0.21016600728034973,
        0.4379279911518097
      ],
      "type": "VEC2"
    },
    {
      "bufferView": 0,
      "byteOffset": 5641860,
      "componentType": 5125,
      "count": 340452,
      "type": "SCALAR"
    },
    {
      "bufferView": 2,
      "byteOffset": 7863840,
      "componentType": 5126,
      "count": 38225,
      "max": [
        5031.25,
        4593.08740234375,
        2560.0
      ],
      "min": [
        -5120.0,
        2100.19921875,
        -640.0
      ],
      "type": "VEC3"
    },
    {
      "bufferView": 2,
      "byteOffset": 8322540,
      "componentType": 5126,
      "count": 38225,
      "max": [
        0.9839538335800171,
        -0.13085871934890747,
        0.9711387157440186
      ],
      "min": [
        -0.9854023456573486,
        -0.9999383687973022,
        -0.9785349369049072
      ],
      "type": "VEC3"
    },
    {
      "bufferView": 1,
      "byteOffset": 2621280,
      "componentType": 5126,
      "count": 38225,
      "max": [
        0.9923020005226135,
        0.7507330179214478
      ],
      "min": [
        0.0,
        0.4379279911518097
      ],
      "type": "VEC2"
    },
    {
      "bufferView": 0,
      "byteOffset": 7003668,
      "componentType": 5125,
      "count": 132525,
      "type": "SCALAR"
    }
  ],
  "asset": {
    "extras": {
      "author": "Nicothin (https://sketchfab.com/juhyt80)",
      "license": "CC-BY-4.0 (http://creativecommons.org/licenses/by/4.0/)",
      "source": "https://sketchfab.com/3d-models/rocky-hell-terrain-6a4c6f4bd2f24cb1a3f63adf426b2774",
      "title": "Rocky hell terrain"
    },
    "generator": "Sketchfab-12.64.0",
    "version": "2.0"
  },
  "bufferViews": [
    {
      "buffer": 0,
      "byteLength": 7533768,
      "name": "floatBufferViews",
      "target": 34963
    },
    {
      "buffer": 0,
      "byteLength": 2927080,
      "byteOffset": 7533768,
      "byteStride": 8,
      "name": "floatBufferViews",
      "target": 34962
    },
    {
      "buffer": 0,
      "byteLength": 8781240,
      "byteOffset": 10460848,
      "byteStride": 12,
      "name": "floatBufferViews",
      "target": 34962
    }
  ],
  "buffers": [
    {
      "byteLength": 19242088,
      "uri": "scene.bin"
    }
  ],
  "images": [
    {
      "uri": "textures/terrain_mtl_baseColor.png"
    }
  ],
  "materials": [
    {
      "doubleSided": true,
      "name": "terrain_mtl",
      "pbrMetallicRoughness": {
        "baseColorTexture": {
          "index": 0
        },
        "metallicFactor": 0.0,
        "roughnessFactor": 0.6
      }
    }
  ],
  "meshes": [
    {
      "name": "Object_0",
      "primitives": [
        {
          "attributes": {
            "NORMAL": 1,
            "POSITION": 0,
            "TEXCOORD_0": 2
          },
          "indices": 3,
          "material": 0,
          "mode": 4
        }
      ]
    },
    {
      "name": "Object_1",
      "primitives": [
        {
          "attributes": {
            "NORMAL": 5,
            "POSITION": 4,
            "TEXCOORD_0": 6
          },
          "indices": 7,
          "material": 0,
          "mode": 4
        }
      ]
    },
    {
      "name": "Object_2",
      "primitives": [
        {
          "attributes": {
            "NORMAL": 9,
            "POSITION": 8,
            "TEXCOORD_0": 10
          },
          "indices": 11,
          "material": 0,
          "mode": 4
        }
      ]
    },
    {
      "name": "Object_3",
      "primitives": [
        {
          "attributes": {
            "NORMAL": 13,
            "POSITION": 12,
            "TEXCOORD_0": 14
          },
          "indices": 15,
          "material": 0,
          "mode": 4
        }
      ]
    },
    {
      "name": "Object_4",
      "primitives": [
        {
          "attributes": {
            "NORMAL": 17,
            "POSITION": 16,
            "TEXCOORD_0": 18
          },
          "indices": 19,
          "material": 0,
          "mode": 4
        }
      ]
    },
    {
      "name": "Object_5",
      "primitives": [
        {
          "attributes": {
            "NORMAL": 21,
            "POSITION": 20,
            "TEXCOORD_0": 22
          },
          "indices": 23,
          "material": 0,
          "mode": 4
        }
      ]
    }
  ],
  "nodes": [
    {
      "children": [
        1
      ],
      "matrix": [
        1.0,
        0.0,
        0.0,
        0.0,
        0.0,
        -1.0,
        -4.440892098500626e-16,
        0.0,
        0.0,
        4.440892098500626e-16,
        -1.0,
        0.0,
        0.0,
        3402.508789062501,
        -3412.520263671874,
        1.0
      ],
      "name": "Sketchfab_model"
    },
    {
      "children": [
        2,
        3,
        4,
        5,
        6,
        7
      ],
      "name": "mesh.obj.cleaner.materialmerger.gles"
    },
    {
      "mesh": 0,
      "name": "Object_2"
    },
    {
      "mesh": 1,
      "name": "Object_3"
    },
    {
      "mesh": 2,
      "name": "Object_4"
    },
    {
      "mesh": 3,
      "name": "Object_5"
    },
    {
      "mesh": 4,
      "name": "Object_6"
    },
    {
      "mesh": 5,
      "name": "Object_7"
    }
  ],
  "samplers": [
    {
      "magFilter": 9729,
      "minFilter": 9987,
      "wrapS": 10497,
      "wrapT": 10497
    }
  ],
  "scene": 0,
  "scenes": [
    {
      "name": "Sketchfab_Scene",
      "nodes": [
        0
      ]
    }
  ],
  "textures": [
    {
      "sampler": 0,
      "source": 0
    }
  ]
}
